# xmcd
#
# Track frame offsets:
#	150
#	14212
#	30674
#	44586
#	57298
#	74960
#	92322
#	108259
#	131246
#	146508
#	161545
#	177482
#	194469
#	211306
#	227543
#	242655
#	257392
#	271754
#
# Disc length: 3850 seconds
#
# Revision: 1
# Processed by: cddbd v1.5.2PL0 Copyright (c) Steve Scherf et al.
# Submitted via: audiograbber 1.83.01
#
DISCID=060f0812
DTITLE=Various Artist - 2011 April Promo Only Country Radio
DYEAR=2011
DGENRE=Country
TTITLE0=Bridgette Tatum - Hillbilly Rockstar
TTITLE1=Chris Young - Tomorrow
TTITLE2=Toby Keith - Somewhere Else
TTITLE3=Colt Ford - Country Thang
TTITLE4=Keith Urban - Without You
TTITLE5=Jody Booth - Gold Digger
TTITLE6=Gretchen Wilson - I'd Love To Be Your Last
TTITLE7=Doobie Brothers, The - World Gone Crazy
TTITLE8=Sarah Darling - Something To Do With Your Hands
TTITLE9=Eli Young Band - Crazy Girl
TTITLE10=Ronnie Dunn - Bleed Red
TTITLE11=Eric Church - Homeboy
TTITLE12=Justin Moore - If Heaven Wasn't So Far Away
TTITLE13=Tonja Rose - Where Would Your Heart Be
TTITLE14=Levi Hart - Borderline Crazy
TTITLE15=River Road - Something I Can Wrap My Arms Around
TTITLE16=D.J. Miller - Whatever It Takes
TTITLE17=Brice Beaird - Old Rock Church
EXTD=
EXTT0=
EXTT1=
EXTT2=
EXTT3=
EXTT4=
EXTT5=
EXTT6=
EXTT7=
EXTT8=
EXTT9=
EXTT10=
EXTT11=
EXTT12=
EXTT13=
EXTT14=
EXTT15=
EXTT16=
EXTT17=
PLAYORDER=
